<?xml version="1.0" encoding="utf-8"?>
<!-- Generator: Adobe Illustrator 21.1.0, SVG Export Plug-In . SVG Version: 6.00 Build 0)  -->
<svg version="1.1" id="Capa_1" xmlns="http://www.w3.org/2000/svg" xmlns:xlink="http://www.w3.org/1999/xlink" x="0px" y="0px"
	 viewBox="0 0 144 31" style="enable-background:new 0 0 144 31;" xml:space="preserve">
<style type="text/css">
	.st0{fill:url(#Oval_2_);}
	.st1{fill:#FFFFFF;}
	.st2{opacity:0.4969;fill:#628690;enable-background:new    ;}
	.st3{fill:url(#Oval_3_);}
	.st4{font-family:'Arial-Black';}
	.st5{font-size:13px;}
	.st6{font-family:'ChalkboardSE-Regular';}
	.st7{font-size:10px;}
</style>
<title>Group 3 Copy</title>
<desc>Created with Sketch.</desc>
<g id="Symbols">
	<g id="header-dark" transform="translate(-60.000000, -15.000000)">
		<g id="Group-3-Copy" transform="translate(60.000000, 15.000000)">
			<g id="Group">
				
					<linearGradient id="Oval_2_" gradientUnits="userSpaceOnUse" x1="-445.855" y1="941.9473" x2="-446.0163" y2="940.9473" gradientTransform="matrix(31 0 0 -31 14010 29312)">
					<stop  offset="0" style="stop-color:#A2F8B8"/>
					<stop  offset="1" style="stop-color:#11C39F"/>
				</linearGradient>
				<circle id="Oval" class="st0" cx="185.9" cy="127.5" r="15.5"/>
				<path id="_xEFD7_" class="st1" d="M183.3,126.9c0,0,0-0.1,0-0.1s0.1,0,0.1,0h5.1c0,0,0.1,0,0.1,0s0,0.1,0,0.1l-2.6,6.9
					c0,0,0,0.1-0.1,0.1s0,0-0.1-0.1l-1.3-3.5C184,128.9,183.6,127.8,183.3,126.9z M178.3,126.8C178.3,126.8,178.3,126.8,178.3,126.8
					c0-0.1,0-0.1,0.1-0.1h4.1c0,0,0.1,0,0.2,0c0.1,0,0.1,0.1,0.1,0.1l2.7,7.1c0,0.1,0.1,0.2,0,0.2s-0.1,0-0.2-0.1l-3.5-3.6
					C180.1,128.7,178.9,127.5,178.3,126.8z M189.1,126.9c0-0.1,0.1-0.1,0.1-0.2s0.1,0,0.2,0h4.1c0,0,0.1,0,0.1,0s0,0.1-0.1,0.1
					l-7,7.2c-0.1,0.1-0.1,0.1-0.1,0.1s0-0.1,0-0.2l1.5-4.1C188.5,128.7,188.8,127.7,189.1,126.9z M188.5,126c0,0,0,0.1,0,0.1
					c0,0-0.1,0-0.1,0h-4.9c0,0-0.1,0-0.1,0c0,0,0-0.1,0-0.1l2.4-3.6c0,0,0.1-0.1,0.1-0.1s0.1,0,0.1,0.1
					C186.5,123.1,187.4,124.4,188.5,126z M180.8,122.2L180.8,122.2C180.8,122.1,180.8,122.1,180.8,122.2c0.1,0,0.1,0,0.2,0l1.5,3.8
					c0,0,0,0.1,0,0.1c0,0-0.1,0-0.1,0h-4c-0.1,0-0.1,0-0.1,0c0,0,0-0.1,0-0.1l1.3-1.9C180.2,123.1,180.6,122.4,180.8,122.2z
					 M193.7,126C193.7,126.1,193.7,126.1,193.7,126c0,0.1,0,0.1-0.1,0.1h-4c0,0-0.1,0-0.1,0c0,0,0-0.1,0-0.1l1.5-3.8
					c0,0,0-0.1,0.1-0.1s0.1,0,0.1,0.1C191.1,122.2,192,123.5,193.7,126z M190.4,121.8c0,0,0.1,0,0.1,0c0,0,0,0.1,0,0.1l-1.4,3.8
					c0,0-0.1,0.1-0.1,0.1s-0.1,0-0.1-0.1l-2.5-3.8c0,0,0-0.1,0-0.1c0,0,0,0,0.1,0H190.4z M185.4,121.8
					C185.5,121.8,185.5,121.8,185.4,121.8c0.1,0.1,0.1,0.1,0.1,0.2l-2.5,3.8c0,0-0.1,0.1-0.1,0.1s-0.1,0-0.1-0.1l-1.4-3.8
					c0-0.1,0-0.1,0-0.1c0,0,0.1,0,0.1,0H185.4z"/>
			</g>
			<g id="Group-2" transform="translate(39.000000, 4.000000)">
				<path id="EasyDEV" class="st1" d="M173.3,121h5.3v2.2h-8.1V113h8v2.2h-5.1v1.7h4.5v2.2h-4.5V121z M187.8,123.3l-0.8-2h-4.3
					l-0.8,2H179l4.5-10.2h2.8l4.5,10.2H187.8z M183.5,119.2h2.6l-1.3-3.3L183.5,119.2z M195.2,123.5c-1.7,0-3.3-0.5-4.3-1.1l0.9-2.1
					c0.9,0.6,2.2,1,3.3,1c1.2,0,1.7-0.3,1.7-0.8c0-1.6-5.8-0.4-5.8-4.2c0-1.8,1.5-3.3,4.5-3.3c1.3,0,2.7,0.3,3.7,0.9l-0.9,2.1
					c-1-0.5-1.9-0.8-2.8-0.8c-1.2,0-1.6,0.4-1.6,0.9c0,1.6,5.8,0.4,5.8,4.2C199.6,122,198.2,123.5,195.2,123.5z M210.1,113l-3.9,6.6
					v3.7h-2.9v-3.7l-3.9-6.5h3l2.4,4.1l2.4-4.1H210.1z M210.8,123.3V113h4.8c3.4,0,5.7,2,5.7,5.1c0,3.1-2.3,5.1-5.7,5.1H210.8z
					 M213.6,121h1.8c1.7,0,2.9-1,2.9-2.8c0-1.8-1.2-2.8-2.9-2.8h-1.8V121z M225.6,121h5.3v2.2h-8.1V113h8v2.2h-5.1v1.7h4.5v2.2h-4.5
					V121z M239.8,113h2.8l-4.4,10.2h-2.8l-4.3-10.2h3.1l2.8,6.7L239.8,113z"/>
				<path id="professional-admin" class="st2" d="M173.6,129.7c1.7,0,2.9,1.2,2.9,3c0,1.8-1.2,3-2.9,3c-0.9,0-1.7-0.4-2.2-1.2v3.3
					h-0.8v-8.1h0.8v1.2C171.8,130.1,172.6,129.7,173.6,129.7z M173.5,135c1.2,0,2.2-0.9,2.2-2.3c0-1.4-0.9-2.3-2.2-2.3
					c-1.2,0-2.2,0.9-2.2,2.3C171.3,134.1,172.3,135,173.5,135z M178.9,130.9c0.4-0.8,1.1-1.2,2.2-1.2v0.8c-0.1,0-0.1,0-0.2,0
					c-1.2,0-2,0.8-2,2.2v3h-0.8v-5.9h0.8V130.9z M184.8,135.7c-1.7,0-3-1.3-3-3c0-1.8,1.3-3,3-3s3,1.2,3,3
					C187.8,134.4,186.5,135.7,184.8,135.7z M184.8,135c1.2,0,2.2-0.9,2.2-2.3c0-1.4-0.9-2.3-2.2-2.3s-2.2,0.9-2.2,2.3
					C182.6,134.1,183.6,135,184.8,135z M191.4,127.9c-0.7,0-1,0.4-1,1.1v0.7h1.8v0.7h-1.8v5.2h-0.8v-5.2h-1v-0.7h1V129
					c0-1.1,0.6-1.8,1.8-1.8c0.4,0,0.9,0.1,1.2,0.4l-0.3,0.6C192,128,191.7,127.9,191.4,127.9z M198.2,132.7c0,0.1,0,0.2,0,0.2h-4.9
					c0.1,1.2,1,2.1,2.3,2.1c0.7,0,1.3-0.3,1.8-0.8l0.4,0.5c-0.5,0.6-1.3,1-2.3,1c-1.8,0-3.1-1.3-3.1-3c0-1.8,1.2-3,2.9-3
					C197,129.7,198.2,130.9,198.2,132.7z M195.4,130.4c-1.1,0-2,0.8-2.1,2h4.2C197.4,131.2,196.5,130.4,195.4,130.4z M201.4,135.7
					c-1,0-1.9-0.3-2.4-0.7l0.4-0.6c0.5,0.4,1.3,0.7,2.1,0.7c1.1,0,1.6-0.4,1.6-1c0-1.5-3.8-0.3-3.8-2.7c0-1,0.8-1.7,2.3-1.7
					c0.8,0,1.6,0.2,2.1,0.6l-0.3,0.6c-0.5-0.4-1.1-0.5-1.7-0.5c-1.1,0-1.5,0.4-1.5,1c0,1.6,3.8,0.4,3.8,2.7
					C203.8,135,202.9,135.7,201.4,135.7z M206.9,135.7c-1,0-1.9-0.3-2.4-0.7l0.4-0.6c0.5,0.4,1.3,0.7,2.1,0.7c1.1,0,1.6-0.4,1.6-1
					c0-1.5-3.8-0.3-3.8-2.7c0-1,0.8-1.7,2.3-1.7c0.8,0,1.6,0.2,2.1,0.6l-0.3,0.6c-0.5-0.4-1.1-0.5-1.7-0.5c-1.1,0-1.5,0.4-1.5,1
					c0,1.6,3.8,0.4,3.8,2.7C209.3,135,208.4,135.7,206.9,135.7z M211.1,128.4c-0.3,0-0.6-0.3-0.6-0.6c0-0.3,0.3-0.6,0.6-0.6
					s0.6,0.2,0.6,0.6C211.7,128.2,211.5,128.4,211.1,128.4z M210.7,135.7v-5.9h0.8v5.9H210.7z M216.1,135.7c-1.7,0-3-1.3-3-3
					c0-1.8,1.3-3,3-3c1.7,0,3,1.2,3,3C219.1,134.4,217.9,135.7,216.1,135.7z M216.1,135c1.2,0,2.2-0.9,2.2-2.3
					c0-1.4-0.9-2.3-2.2-2.3c-1.2,0-2.2,0.9-2.2,2.3C214,134.1,214.9,135,216.1,135z M223.7,129.7c1.4,0,2.4,0.8,2.4,2.5v3.4h-0.8
					v-3.4c0-1.2-0.6-1.9-1.8-1.9c-1.3,0-2.1,0.8-2.1,2.1v3.1h-0.8v-5.9h0.8v1.1C221.9,130.1,222.7,129.7,223.7,129.7z M230.3,129.7
					c1.5,0,2.4,0.8,2.4,2.3v3.7H232v-0.9c-0.4,0.6-1,1-2,1c-1.3,0-2.1-0.7-2.1-1.7c0-0.9,0.6-1.7,2.3-1.7h1.9v-0.4
					c0-1-0.6-1.6-1.7-1.6c-0.8,0-1.5,0.3-2,0.7l-0.4-0.6C228.5,130,229.4,129.7,230.3,129.7z M230.1,135.1c0.9,0,1.6-0.4,1.9-1.2v-1
					h-1.8c-1.1,0-1.5,0.4-1.5,1.1C228.6,134.6,229.1,135.1,230.1,135.1z M234.9,135.7v-8.3h0.8v8.3H234.9z M242.8,129.7
					c1.5,0,2.4,0.8,2.4,2.3v3.7h-0.8v-0.9c-0.4,0.6-1,1-2,1c-1.3,0-2.1-0.7-2.1-1.7c0-0.9,0.6-1.7,2.3-1.7h1.9v-0.4
					c0-1-0.6-1.6-1.7-1.6c-0.8,0-1.5,0.3-2,0.7l-0.4-0.6C241.1,130,241.9,129.7,242.8,129.7z M242.6,135.1c0.9,0,1.6-0.4,1.9-1.2v-1
					h-1.8c-1.1,0-1.5,0.4-1.5,1.1C241.1,134.6,241.6,135.1,242.6,135.1z M252,127.3h0.8v8.3H252v-1.2c-0.5,0.8-1.3,1.2-2.3,1.2
					c-1.7,0-2.9-1.2-2.9-3c0-1.8,1.2-3,2.9-3c0.9,0,1.7,0.4,2.2,1.2V127.3z M249.8,135c1.2,0,2.2-0.9,2.2-2.3c0-1.4-0.9-2.3-2.2-2.3
					c-1.2,0-2.2,0.9-2.2,2.3C247.6,134.1,248.5,135,249.8,135z M262.3,129.7c1.4,0,2.4,0.8,2.4,2.5v3.4h-0.8v-3.4
					c0-1.2-0.6-1.9-1.7-1.9c-1.2,0-2,0.8-2,2.1v3.1h-0.8v-3.4c0-1.2-0.6-1.9-1.7-1.9c-1.2,0-2,0.8-2,2.1v3.1H255v-5.9h0.8v1.1
					c0.4-0.7,1.2-1.1,2.2-1.1c1,0,1.7,0.4,2.1,1.2C260.4,130.2,261.2,129.7,262.3,129.7z M267.2,128.4c-0.3,0-0.6-0.3-0.6-0.6
					c0-0.3,0.3-0.6,0.6-0.6c0.3,0,0.6,0.2,0.6,0.6C267.8,128.2,267.5,128.4,267.2,128.4z M266.8,135.7v-5.9h0.8v5.9H266.8z
					 M272.8,129.7c1.4,0,2.4,0.8,2.4,2.5v3.4h-0.8v-3.4c0-1.2-0.6-1.9-1.8-1.9c-1.3,0-2.1,0.8-2.1,2.1v3.1h-0.8v-5.9h0.8v1.1
					C271,130.1,271.8,129.7,272.8,129.7z"/>
			</g>
		</g>
	</g>
</g>
<g id="Group-3" transform="translate(60.000000, 15.000000)">
	<g id="Group_1_">
		
			<linearGradient id="Oval_3_" gradientUnits="userSpaceOnUse" x1="-963.2653" y1="45.8906" x2="-963.4266" y2="46.8906" gradientTransform="matrix(31 0 0 31 29820 -1438)">
			<stop  offset="0" style="stop-color:#A2F8B8"/>
			<stop  offset="1" style="stop-color:#11C39F"/>
		</linearGradient>
		<circle id="Oval_1_" class="st3" cx="-43.8" cy="0.5" r="15.5"/>
	</g>
</g>
<text transform="matrix(1 0 0 1 35.1942 13.5001)" class="st1 st4 st5">PVL</text>
<text transform="matrix(1 0 0 1 34.1939 25.9366)" class="st2 st6 st7">Sistema de Distribución</text>
<g>
	<g>
		<path class="st1" d="M12.7,7.9h5.5c0.6,0,1.1,0.5,1.1,1.1c0,0.5-0.3,0.9-0.8,1.1c-0.1,0-0.2,0-0.2,0c0,0,0,0,0,0c0,0,0,0,0,0h-5.5
			c-0.6,0-1.1-0.5-1.1-1.1C11.6,8.4,12.1,7.9,12.7,7.9z"/>
		<path class="st1" d="M18.3,10.7C18.3,10.7,18.2,10.7,18.3,10.7l-5.6,0c-0.1,0-0.2,0-0.3,0l-1.6,2.6v12c0,0,0,0,0,0.1
			c0.2,0.3,1.7,0.9,4.4,0.9c2.9,0,4.5-0.6,4.5-0.9V13.3L18.3,10.7z M19.1,24.8c0,0.1-0.1,0.2-0.2,0.3c-0.1,0-2,0.6-4.2,0.6
			c-1.3,0-2.4-0.2-3.3-0.6c-0.1,0-0.2-0.1-0.2-0.3v-9.5c0-0.1,0-0.2,0.1-0.2c0,0,0.4-0.2,1.1-0.2c0.7,0,1.5,0.2,2.5,0.5
			c0.6,0.2,1.2,0.3,1.8,0.3c1,0,1.6-0.4,1.8-0.5l0.1-0.1c0.1-0.1,0.2-0.1,0.3,0c0.1,0,0.2,0.1,0.2,0.3L19.1,24.8L19.1,24.8z"/>
		<path class="st1" d="M17.4,2.2c-0.5,0.1-1,0.4-1.2,0.8c-0.7,1.1-0.3,2.8-0.2,2.9c0,0.1,0.1,0.2,0.3,0.2c0,0,0,0,0,0
			c0.1,0,0.2-0.1,0.3-0.2c0.2-0.5,0.8-0.6,1.4-0.8C18.1,5,18.3,5,18.5,4.9c0.5-0.2,0.8-1.1,0.7-1.8C19,2.3,18.3,2,17.4,2.2z
			 M18.2,4.4c-0.1,0.1-0.4,0.1-0.6,0.2c-0.4,0.1-0.9,0.3-1.3,0.6c-0.1-0.5-0.1-1.3,0.3-1.8c0.2-0.3,0.5-0.5,0.9-0.6
			c0.1,0,0.3,0,0.4,0c0.4,0,0.6,0.2,0.7,0.5C18.7,3.7,18.4,4.3,18.2,4.4z"/>
		<path class="st1" d="M18,5.1c-1,0-1.4,1.2-1.5,1.3c0,0.1,0,0.3,0.1,0.3c0.1,0.1,0.2,0.1,0.3,0c0,0,0.1,0,0.2,0
			c0.1,0,0.3,0.1,0.5,0.1c0.1,0,0.2,0.1,0.3,0.1c0.1,0,0.3,0,0.4,0c0.1,0,0.2,0,0.4,0c0.2-0.1,0.6-0.3,0.6-0.7c0-0.2,0-0.6-0.5-0.9
			C18.5,5.2,18.2,5.1,18,5.1z M18.5,6.3c-0.1,0-0.4,0-0.5,0c-0.1,0-0.1,0-0.2-0.1c-0.1-0.1-0.3-0.1-0.5-0.2c0.2-0.2,0.4-0.4,0.7-0.4
			c0.1,0,0.3,0,0.4,0.1c0.2,0.1,0.3,0.2,0.3,0.3C18.7,6.2,18.5,6.3,18.5,6.3z"/>
		<path class="st1" d="M11.1,4.2c-0.9,0.6-1,1.2-0.9,1.6c0.1,0.6,0.7,1.1,1.1,1.2c0.2,0.1,0.5,0.1,0.7,0.1l0,0c0.3,0,0.5,0,0.7-0.1
			c0.2,0,0.3-0.1,0.5-0.2c0.3-0.1,0.7-0.3,1.1-0.3c0.2,0,0.4,0.1,0.5,0.2c0.1,0,0.1,0.1,0.2,0.1c0.2,0,0.3-0.1,0.3-0.3
			c0-0.1,0-0.1-0.1-0.2c-0.2-0.3-1.5-2.4-3-2.4C11.8,3.9,11.5,4,11.1,4.2z M14.3,6c-0.5,0-0.9,0.2-1.3,0.3c-0.2,0.1-0.3,0.1-0.5,0.2
			c-0.1,0-0.3,0-0.5,0c-0.2,0-0.4,0-0.5,0c-0.2,0-0.6-0.4-0.7-0.8c-0.1-0.4,0.3-0.8,0.7-1c0.2-0.1,0.5-0.2,0.7-0.2
			C13,4.5,13.8,5.3,14.3,6z"/>
	</g>
</g>
</svg>
