<?xml version="1.0" encoding="utf-8"?>
<!-- Generator: Adobe Illustrator 21.1.0, SVG Export Plug-In . SVG Version: 6.00 Build 0)  -->
<svg version="1.1" id="Capa_1" xmlns="http://www.w3.org/2000/svg" xmlns:xlink="http://www.w3.org/1999/xlink" x="0px" y="0px"
	 viewBox="0 0 144 31" style="enable-background:new 0 0 144 31;" xml:space="preserve">
<style type="text/css">
	.st0{fill:url(#Oval_1_);}
	.st1{enable-background:new    ;}
	.st2{fill:#628690;}
	.st3{opacity:0.4969;enable-background:new    ;}
	.st4{fill:#FFFFFF;}
</style>
<title>Group 3</title>
<desc>Created with Sketch.</desc>
<g id="Group-3" transform="translate(60.000000, 15.000000)">
	<g id="Group">
		
			<linearGradient id="Oval_1_" gradientUnits="userSpaceOnUse" x1="-1475.1689" y1="884.6578" x2="-1475.3302" y2="883.6578" gradientTransform="matrix(31 0 0 -31 45690 27409)">
			<stop  offset="0" style="stop-color:#A2F8B8"/>
			<stop  offset="1" style="stop-color:#11C39F"/>
		</linearGradient>
		<circle id="Oval" class="st0" cx="-42.8" cy="0.5" r="15.5"/>
	</g>
</g>
<g class="st1">
	<path class="st2" d="M38.1,9.7v3.8h-0.8V4.3h3.1c1,0,1.7,0.2,2.3,0.7c0.6,0.5,0.8,1.2,0.8,2c0,0.9-0.3,1.5-0.8,2
		c-0.5,0.5-1.3,0.7-2.3,0.7H38.1z M38.1,9.1h2.4c0.8,0,1.3-0.2,1.7-0.5s0.6-0.9,0.6-1.5c0-0.6-0.2-1.1-0.6-1.5
		c-0.4-0.4-1-0.6-1.7-0.6h-2.4V9.1z"/>
	<path class="st2" d="M48.1,12.4l0.1,0.2l0.1-0.2l2.9-8.1H52l-3.4,9.2h-0.7l-3.4-9.2h0.9L48.1,12.4z"/>
	<path class="st2" d="M54.2,12.8h4.6v0.7h-5.4V4.3h0.8V12.8z"/>
</g>
<g class="st3">
	<path class="st2" d="M39.6,23.1c0-0.3-0.1-0.6-0.3-0.7s-0.6-0.3-1.2-0.5c-0.6-0.2-1-0.4-1.4-0.6c-0.6-0.4-1-0.9-1-1.6
		c0-0.6,0.2-1,0.7-1.4c0.5-0.4,1.1-0.6,1.8-0.6c0.5,0,0.9,0.1,1.3,0.3c0.4,0.2,0.7,0.4,0.9,0.8c0.2,0.3,0.3,0.7,0.3,1.1h-1.2
		c0-0.4-0.1-0.7-0.3-0.9c-0.2-0.2-0.6-0.3-1-0.3c-0.4,0-0.7,0.1-0.9,0.3c-0.2,0.2-0.3,0.4-0.3,0.7c0,0.3,0.1,0.5,0.4,0.7
		c0.2,0.2,0.6,0.3,1.2,0.5c0.6,0.2,1,0.4,1.3,0.6c0.3,0.2,0.6,0.5,0.7,0.7c0.2,0.3,0.2,0.6,0.2,1c0,0.6-0.2,1.1-0.7,1.4
		c-0.5,0.4-1.1,0.5-1.8,0.5c-0.5,0-1-0.1-1.4-0.3c-0.4-0.2-0.8-0.5-1-0.8s-0.4-0.7-0.4-1.2h1.2c0,0.4,0.1,0.7,0.4,0.9
		c0.3,0.2,0.6,0.3,1.1,0.3c0.4,0,0.8-0.1,1-0.3C39.5,23.6,39.6,23.4,39.6,23.1z"/>
	<path class="st2" d="M41.8,18.3c0-0.2,0.1-0.3,0.2-0.5c0.1-0.1,0.3-0.2,0.5-0.2s0.4,0.1,0.5,0.2s0.2,0.3,0.2,0.5
		c0,0.2-0.1,0.3-0.2,0.4c-0.1,0.1-0.3,0.2-0.5,0.2s-0.4-0.1-0.5-0.2C41.9,18.6,41.8,18.5,41.8,18.3z M43.1,24.9h-1.2v-5.3h1.2V24.9z
		"/>
	<path class="st2" d="M47.3,23.5c0-0.2-0.1-0.4-0.3-0.5c-0.2-0.1-0.5-0.2-0.9-0.3c-0.4-0.1-0.7-0.2-1-0.3c-0.6-0.3-0.9-0.7-0.9-1.2
		c0-0.5,0.2-0.8,0.6-1.1c0.4-0.3,0.9-0.5,1.5-0.5c0.6,0,1.1,0.2,1.5,0.5c0.4,0.3,0.6,0.7,0.6,1.2h-1.2c0-0.2-0.1-0.4-0.3-0.6
		c-0.2-0.2-0.4-0.2-0.7-0.2c-0.3,0-0.5,0.1-0.6,0.2c-0.2,0.1-0.2,0.3-0.2,0.5c0,0.2,0.1,0.3,0.2,0.4c0.2,0.1,0.5,0.2,0.9,0.3
		c0.5,0.1,0.8,0.2,1.1,0.4c0.3,0.1,0.5,0.3,0.6,0.5c0.1,0.2,0.2,0.4,0.2,0.7c0,0.5-0.2,0.9-0.6,1.2C47.5,24.9,47,25,46.4,25
		c-0.4,0-0.8-0.1-1.2-0.2c-0.3-0.2-0.6-0.4-0.8-0.6c-0.2-0.3-0.3-0.6-0.3-0.9h1.2c0,0.3,0.1,0.5,0.3,0.6c0.2,0.2,0.5,0.2,0.8,0.2
		c0.3,0,0.6-0.1,0.7-0.2C47.3,23.8,47.3,23.7,47.3,23.5z"/>
	<path class="st2" d="M51,18.4v1.3H52v0.9H51v2.9c0,0.2,0,0.3,0.1,0.4c0.1,0.1,0.2,0.1,0.4,0.1c0.1,0,0.3,0,0.4,0v0.9
		C51.7,25,51.5,25,51.2,25c-0.9,0-1.4-0.5-1.4-1.5v-3H49v-0.9h0.9v-1.3H51z"/>
	<path class="st2" d="M55.2,25c-0.8,0-1.4-0.2-1.8-0.7c-0.5-0.5-0.7-1.1-0.7-1.9v-0.1c0-0.5,0.1-1,0.3-1.4c0.2-0.4,0.5-0.7,0.9-1
		c0.4-0.2,0.8-0.3,1.2-0.3c0.7,0,1.3,0.2,1.7,0.7c0.4,0.5,0.6,1.1,0.6,1.9v0.5h-3.5c0,0.4,0.2,0.8,0.4,1c0.3,0.3,0.6,0.4,1,0.4
		c0.5,0,1-0.2,1.3-0.7l0.6,0.6c-0.2,0.3-0.5,0.6-0.8,0.7C56,24.9,55.6,25,55.2,25z M55,20.5c-0.3,0-0.6,0.1-0.8,0.3s-0.3,0.5-0.4,1
		h2.3v-0.1c0-0.4-0.1-0.7-0.3-0.9C55.6,20.6,55.4,20.5,55,20.5z"/>
	<path class="st2" d="M59.3,19.7l0,0.6c0.4-0.4,0.9-0.6,1.5-0.6c0.7,0,1.2,0.3,1.5,0.8c0.4-0.5,0.9-0.8,1.6-0.8c0.6,0,1,0.2,1.3,0.5
		c0.3,0.3,0.4,0.8,0.4,1.4v3.5h-1.2v-3.4c0-0.3-0.1-0.6-0.2-0.7s-0.4-0.2-0.7-0.2c-0.3,0-0.5,0.1-0.7,0.2c-0.2,0.1-0.3,0.3-0.4,0.6
		l0,3.6h-1.2v-3.5c0-0.6-0.3-0.9-1-0.9c-0.5,0-0.8,0.2-1,0.6v3.8h-1.2v-5.3H59.3z"/>
	<path class="st2" d="M70.1,24.9C70,24.8,70,24.7,70,24.4c-0.4,0.4-0.8,0.6-1.4,0.6c-0.5,0-1-0.2-1.3-0.5c-0.3-0.3-0.5-0.7-0.5-1.1
		c0-0.6,0.2-1,0.6-1.3c0.4-0.3,1-0.5,1.8-0.5h0.7v-0.3c0-0.3-0.1-0.5-0.2-0.7c-0.2-0.2-0.4-0.2-0.7-0.2c-0.3,0-0.5,0.1-0.7,0.2
		c-0.2,0.1-0.3,0.3-0.3,0.5h-1.2c0-0.3,0.1-0.6,0.3-0.8c0.2-0.3,0.5-0.5,0.8-0.6c0.3-0.1,0.7-0.2,1.1-0.2c0.6,0,1.1,0.2,1.5,0.5
		c0.4,0.3,0.6,0.7,0.6,1.3v2.4c0,0.5,0.1,0.9,0.2,1.1v0.1H70.1z M68.8,24.1c0.2,0,0.5-0.1,0.7-0.2c0.2-0.1,0.4-0.3,0.5-0.5v-1h-0.6
		c-0.4,0-0.8,0.1-1,0.2c-0.2,0.2-0.3,0.4-0.3,0.6c0,0.2,0.1,0.4,0.2,0.5C68.3,24,68.5,24.1,68.8,24.1z"/>
	<path class="st2" d="M74.6,22.3c0-0.8,0.2-1.5,0.6-2c0.4-0.5,0.9-0.7,1.5-0.7c0.6,0,1,0.2,1.4,0.6v-2.7h1.2v7.5h-1.1l-0.1-0.5
		c-0.4,0.4-0.8,0.6-1.4,0.6c-0.6,0-1.1-0.2-1.5-0.7C74.8,23.8,74.6,23.1,74.6,22.3z M75.8,22.4c0,0.5,0.1,1,0.3,1.3
		c0.2,0.3,0.5,0.5,0.9,0.5c0.5,0,0.8-0.2,1.1-0.6v-2.3c-0.2-0.4-0.6-0.6-1.1-0.6c-0.4,0-0.7,0.2-0.9,0.5
		C75.9,21.3,75.8,21.7,75.8,22.4z"/>
	<path class="st2" d="M82.8,25c-0.8,0-1.4-0.2-1.8-0.7c-0.5-0.5-0.7-1.1-0.7-1.9v-0.1c0-0.5,0.1-1,0.3-1.4c0.2-0.4,0.5-0.7,0.9-1
		c0.4-0.2,0.8-0.3,1.2-0.3c0.7,0,1.3,0.2,1.7,0.7c0.4,0.5,0.6,1.1,0.6,1.9v0.5h-3.5c0,0.4,0.2,0.8,0.4,1c0.3,0.3,0.6,0.4,1,0.4
		c0.5,0,1-0.2,1.3-0.7l0.6,0.6c-0.2,0.3-0.5,0.6-0.8,0.7C83.6,24.9,83.2,25,82.8,25z M82.7,20.5c-0.3,0-0.6,0.1-0.8,0.3
		s-0.3,0.5-0.4,1h2.3v-0.1c0-0.4-0.1-0.7-0.3-0.9C83.2,20.6,83,20.5,82.7,20.5z"/>
	<path class="st2" d="M88.4,24.9v-7.1h2.1c0.6,0,1.2,0.1,1.7,0.4c0.5,0.3,0.9,0.7,1.1,1.2c0.3,0.5,0.4,1.1,0.4,1.8v0.4
		c0,0.7-0.1,1.3-0.4,1.8s-0.7,0.9-1.1,1.2c-0.5,0.3-1.1,0.4-1.7,0.4H88.4z M89.7,18.8V24h0.8c0.6,0,1.1-0.2,1.5-0.6
		c0.3-0.4,0.5-1,0.5-1.7v-0.4c0-0.8-0.2-1.4-0.5-1.8c-0.3-0.4-0.8-0.6-1.5-0.6H89.7z"/>
	<path class="st2" d="M94.9,18.3c0-0.2,0.1-0.3,0.2-0.5c0.1-0.1,0.3-0.2,0.5-0.2s0.4,0.1,0.5,0.2s0.2,0.3,0.2,0.5
		c0,0.2-0.1,0.3-0.2,0.4c-0.1,0.1-0.3,0.2-0.5,0.2s-0.4-0.1-0.5-0.2C94.9,18.6,94.9,18.5,94.9,18.3z M96.1,24.9h-1.2v-5.3h1.2V24.9z
		"/>
	<path class="st2" d="M100.4,23.5c0-0.2-0.1-0.4-0.3-0.5c-0.2-0.1-0.5-0.2-0.9-0.3c-0.4-0.1-0.7-0.2-1-0.3c-0.6-0.3-0.9-0.7-0.9-1.2
		c0-0.5,0.2-0.8,0.6-1.1c0.4-0.3,0.9-0.5,1.5-0.5c0.6,0,1.1,0.2,1.5,0.5c0.4,0.3,0.6,0.7,0.6,1.2h-1.2c0-0.2-0.1-0.4-0.3-0.6
		c-0.2-0.2-0.4-0.2-0.7-0.2c-0.3,0-0.5,0.1-0.6,0.2c-0.2,0.1-0.2,0.3-0.2,0.5c0,0.2,0.1,0.3,0.2,0.4c0.2,0.1,0.5,0.2,0.9,0.3
		c0.5,0.1,0.8,0.2,1.1,0.4c0.3,0.1,0.5,0.3,0.6,0.5c0.1,0.2,0.2,0.4,0.2,0.7c0,0.5-0.2,0.9-0.6,1.2c-0.4,0.3-0.9,0.4-1.5,0.4
		c-0.4,0-0.8-0.1-1.2-0.2c-0.3-0.2-0.6-0.4-0.8-0.6c-0.2-0.3-0.3-0.6-0.3-0.9h1.2c0,0.3,0.1,0.5,0.3,0.6c0.2,0.2,0.5,0.2,0.8,0.2
		c0.3,0,0.6-0.1,0.7-0.2C100.3,23.8,100.4,23.7,100.4,23.5z"/>
	<path class="st2" d="M104.1,18.4v1.3h0.9v0.9h-0.9v2.9c0,0.2,0,0.3,0.1,0.4c0.1,0.1,0.2,0.1,0.4,0.1c0.1,0,0.3,0,0.4,0v0.9
		c-0.3,0.1-0.5,0.1-0.8,0.1c-0.9,0-1.4-0.5-1.4-1.5v-3H102v-0.9h0.9v-1.3H104.1z"/>
	<path class="st2" d="M108.7,20.7c-0.2,0-0.3,0-0.5,0c-0.5,0-0.9,0.2-1.1,0.6v3.6h-1.2v-5.3h1.1l0,0.6c0.3-0.5,0.7-0.7,1.2-0.7
		c0.2,0,0.3,0,0.4,0.1L108.7,20.7z"/>
	<path class="st2" d="M109.4,18.3c0-0.2,0.1-0.3,0.2-0.5c0.1-0.1,0.3-0.2,0.5-0.2s0.4,0.1,0.5,0.2s0.2,0.3,0.2,0.5
		c0,0.2-0.1,0.3-0.2,0.4c-0.1,0.1-0.3,0.2-0.5,0.2s-0.4-0.1-0.5-0.2C109.5,18.6,109.4,18.5,109.4,18.3z M110.7,24.9h-1.2v-5.3h1.2
		V24.9z"/>
	<path class="st2" d="M116.6,22.3c0,0.8-0.2,1.5-0.5,2s-0.9,0.7-1.5,0.7c-0.6,0-1.1-0.2-1.4-0.7l-0.1,0.6H112v-7.5h1.2v2.7
		c0.3-0.4,0.8-0.6,1.4-0.6c0.6,0,1.2,0.2,1.5,0.7C116.4,20.8,116.6,21.4,116.6,22.3L116.6,22.3z M115.4,22.2c0-0.6-0.1-1-0.3-1.3
		c-0.2-0.3-0.5-0.4-0.9-0.4c-0.5,0-0.9,0.2-1.1,0.7v2.2c0.2,0.5,0.6,0.7,1.1,0.7c0.4,0,0.7-0.1,0.9-0.4c0.2-0.3,0.3-0.7,0.3-1.3
		V22.2z"/>
	<path class="st2" d="M120.8,24.4c-0.3,0.4-0.8,0.6-1.5,0.6c-0.6,0-1-0.2-1.3-0.5c-0.3-0.3-0.4-0.8-0.4-1.5v-3.4h1.2v3.4
		c0,0.7,0.3,1,0.8,1c0.6,0,1-0.2,1.2-0.6v-3.8h1.2v5.3h-1.1L120.8,24.4z"/>
	<path class="st2" d="M125.3,24.1c0.3,0,0.5-0.1,0.7-0.3s0.3-0.4,0.3-0.6h1.1c0,0.3-0.1,0.6-0.3,0.9c-0.2,0.3-0.5,0.5-0.8,0.7
		c-0.3,0.2-0.7,0.2-1.1,0.2c-0.7,0-1.3-0.2-1.8-0.7c-0.4-0.5-0.6-1.1-0.6-2v-0.1c0-0.8,0.2-1.4,0.6-1.9c0.4-0.5,1-0.7,1.8-0.7
		c0.6,0,1.1,0.2,1.5,0.5c0.4,0.4,0.6,0.8,0.6,1.4h-1.1c0-0.3-0.1-0.6-0.3-0.7c-0.2-0.2-0.4-0.3-0.7-0.3c-0.4,0-0.7,0.1-0.9,0.4
		c-0.2,0.3-0.3,0.7-0.3,1.3v0.2c0,0.6,0.1,1,0.3,1.3C124.6,23.9,124.9,24.1,125.3,24.1z"/>
	<path class="st2" d="M128.4,18.3c0-0.2,0.1-0.3,0.2-0.5c0.1-0.1,0.3-0.2,0.5-0.2s0.4,0.1,0.5,0.2s0.2,0.3,0.2,0.5
		c0,0.2-0.1,0.3-0.2,0.4c-0.1,0.1-0.3,0.2-0.5,0.2s-0.4-0.1-0.5-0.2C128.5,18.6,128.4,18.5,128.4,18.3z M129.7,24.9h-1.2v-5.3h1.2
		V24.9z"/>
	<path class="st2" d="M130.7,22.2c0-0.5,0.1-1,0.3-1.4c0.2-0.4,0.5-0.7,0.9-1c0.4-0.2,0.8-0.3,1.3-0.3c0.7,0,1.3,0.2,1.7,0.7
		s0.7,1.1,0.7,1.8l0,0.3c0,0.5-0.1,1-0.3,1.4s-0.5,0.7-0.9,1c-0.4,0.2-0.8,0.3-1.3,0.3c-0.7,0-1.3-0.2-1.8-0.7
		C131,23.8,130.7,23.1,130.7,22.2L130.7,22.2z M131.9,22.3c0,0.5,0.1,1,0.3,1.3c0.2,0.3,0.5,0.5,0.9,0.5s0.7-0.2,0.9-0.5
		c0.2-0.3,0.3-0.8,0.3-1.4c0-0.5-0.1-1-0.3-1.3s-0.5-0.5-0.9-0.5c-0.4,0-0.7,0.2-0.9,0.5C132,21.3,131.9,21.7,131.9,22.3z
		 M133.5,17.4h1.4l-1.4,1.5l-1,0L133.5,17.4z"/>
	<path class="st2" d="M137.7,19.7l0,0.6c0.4-0.5,0.9-0.7,1.5-0.7c1.1,0,1.7,0.6,1.7,1.9v3.5h-1.2v-3.4c0-0.3-0.1-0.6-0.2-0.7
		c-0.1-0.2-0.4-0.2-0.7-0.2c-0.5,0-0.8,0.2-1.1,0.6v3.8h-1.2v-5.3H137.7z"/>
</g>
<g>
	<g>
		<path class="st4" d="M13.7,7.9h5.5c0.6,0,1.1,0.5,1.1,1.1c0,0.5-0.3,0.9-0.8,1.1c-0.1,0-0.2,0-0.2,0l0,0l0,0h-5.5
			c-0.6,0-1.1-0.5-1.1-1.1C12.6,8.4,13.1,7.9,13.7,7.9z"/>
		<path class="st4" d="M19.3,10.7C19.2,10.7,19.2,10.7,19.3,10.7h-5.6c-0.1,0-0.2,0-0.3,0l-1.6,2.6v12c0,0,0,0,0,0.1
			c0.2,0.3,1.7,0.9,4.4,0.9c2.9,0,4.5-0.6,4.5-0.9V13.3L19.3,10.7z M20.1,24.8c0,0.1-0.1,0.2-0.2,0.3c-0.1,0-2,0.6-4.2,0.6
			c-1.3,0-2.4-0.2-3.3-0.6c-0.1,0-0.2-0.1-0.2-0.3v-9.5c0-0.1,0-0.2,0.1-0.2c0,0,0.4-0.2,1.1-0.2c0.7,0,1.5,0.2,2.5,0.5
			c0.6,0.2,1.2,0.3,1.8,0.3c1,0,1.6-0.4,1.8-0.5l0.1-0.1c0.1-0.1,0.2-0.1,0.3,0c0.1,0,0.2,0.1,0.2,0.3V24.8L20.1,24.8z"/>
		<path class="st4" d="M18.4,2.2c-0.5,0.1-1,0.4-1.2,0.8c-0.7,1.1-0.3,2.8-0.2,2.9c0,0.1,0.1,0.2,0.3,0.2l0,0c0.1,0,0.2-0.1,0.3-0.2
			c0.2-0.5,0.8-0.6,1.4-0.8C19.1,5,19.3,5,19.5,4.9c0.5-0.2,0.8-1.1,0.7-1.8C20,2.3,19.3,2,18.4,2.2z M19.2,4.4
			c-0.1,0.1-0.4,0.1-0.6,0.2c-0.4,0.1-0.9,0.3-1.3,0.6c-0.1-0.5-0.1-1.3,0.3-1.8c0.2-0.3,0.5-0.5,0.9-0.6c0.1,0,0.3,0,0.4,0
			c0.4,0,0.6,0.2,0.7,0.5C19.7,3.7,19.4,4.3,19.2,4.4z"/>
		<path class="st4" d="M19,5.1c-1,0-1.4,1.2-1.5,1.3c0,0.1,0,0.3,0.1,0.3c0.1,0.1,0.2,0.1,0.3,0c0,0,0.1,0,0.2,0s0.3,0.1,0.5,0.1
			c0.1,0,0.2,0.1,0.3,0.1c0.1,0,0.3,0,0.4,0s0.2,0,0.4,0c0.2-0.1,0.6-0.3,0.6-0.7c0-0.2,0-0.6-0.5-0.9C19.5,5.2,19.2,5.1,19,5.1z
			 M19.5,6.3c-0.1,0-0.4,0-0.5,0s-0.1,0-0.2-0.1S18.5,6.1,18.3,6c0.2-0.2,0.4-0.4,0.7-0.4c0.1,0,0.3,0,0.4,0.1
			c0.2,0.1,0.3,0.2,0.3,0.3C19.7,6.2,19.5,6.3,19.5,6.3z"/>
		<path class="st4" d="M12.1,4.2c-0.9,0.6-1,1.2-0.9,1.6c0.1,0.6,0.7,1.1,1.1,1.2c0.2,0.1,0.5,0.1,0.7,0.1l0,0c0.3,0,0.5,0,0.7-0.1
			c0.2,0,0.3-0.1,0.5-0.2c0.3-0.1,0.7-0.3,1.1-0.3c0.2,0,0.4,0.1,0.5,0.2c0.1,0,0.1,0.1,0.2,0.1c0.2,0,0.3-0.1,0.3-0.3
			c0-0.1,0-0.1-0.1-0.2c-0.2-0.3-1.5-2.4-3-2.4C12.8,3.9,12.5,4,12.1,4.2z M15.3,6c-0.5,0-0.9,0.2-1.3,0.3c-0.2,0.1-0.3,0.1-0.5,0.2
			c-0.1,0-0.3,0-0.5,0s-0.4,0-0.5,0c-0.2,0-0.6-0.4-0.7-0.8c-0.1-0.4,0.3-0.8,0.7-1c0.2-0.1,0.5-0.2,0.7-0.2C14,4.5,14.8,5.3,15.3,6
			z"/>
	</g>
</g>
</svg>
