<?xml version="1.0" encoding="utf-8"?>
<!-- Generator: Adobe Illustrator 21.1.0, SVG Export Plug-In . SVG Version: 6.00 Build 0)  -->
<svg version="1.1" id="Capa_1" xmlns="http://www.w3.org/2000/svg" xmlns:xlink="http://www.w3.org/1999/xlink" x="0px" y="0px"
	 viewBox="0 0 144 31" style="enable-background:new 0 0 144 31;" xml:space="preserve">
<style type="text/css">
	.st0{fill:url(#Oval_1_);}
	.st1{fill:#628690;}
	.st2{font-family:'Arial-Black';}
	.st3{font-size:13px;}
	.st4{opacity:0.4969;fill:#628690;enable-background:new    ;}
	.st5{font-family:'ChalkboardSE-Regular';}
	.st6{font-size:10px;}
	.st7{fill:#FFFFFF;}
</style>
<title>Group 3</title>
<desc>Created with Sketch.</desc>
<g id="Group-3" transform="translate(60.000000, 15.000000)">
	<g id="Group">
		
			<linearGradient id="Oval_1_" gradientUnits="userSpaceOnUse" x1="-963.2335" y1="45.8906" x2="-963.3947" y2="46.8906" gradientTransform="matrix(31 0 0 31 29820 -1438)">
			<stop  offset="0" style="stop-color:#A2F8B8"/>
			<stop  offset="1" style="stop-color:#11C39F"/>
		</linearGradient>
		<circle id="Oval" class="st0" cx="-42.8" cy="0.5" r="15.5"/>
	</g>
</g>
<text transform="matrix(1 0 0 1 36.1822 13.5001)" class="st1 st2 st3">PVL</text>
<text transform="matrix(1 0 0 1 35.1819 24.9366)" class="st4 st5 st6">Sistema de Distribución</text>
<g>
	<g>
		<path class="st7" d="M13.7,7.9h5.5c0.6,0,1.1,0.5,1.1,1.1c0,0.5-0.3,0.9-0.8,1.1c-0.1,0-0.2,0-0.2,0c0,0,0,0,0,0c0,0,0,0,0,0h-5.5
			c-0.6,0-1.1-0.5-1.1-1.1C12.6,8.4,13.1,7.9,13.7,7.9z"/>
		<path class="st7" d="M19.3,10.7C19.2,10.7,19.2,10.7,19.3,10.7l-5.6,0c-0.1,0-0.2,0-0.3,0l-1.6,2.6v12c0,0,0,0,0,0.1
			c0.2,0.3,1.7,0.9,4.4,0.9c2.9,0,4.5-0.6,4.5-0.9V13.3L19.3,10.7z M20.1,24.8c0,0.1-0.1,0.2-0.2,0.3c-0.1,0-2,0.6-4.2,0.6
			c-1.3,0-2.4-0.2-3.3-0.6c-0.1,0-0.2-0.1-0.2-0.3v-9.5c0-0.1,0-0.2,0.1-0.2c0,0,0.4-0.2,1.1-0.2c0.7,0,1.5,0.2,2.5,0.5
			c0.6,0.2,1.2,0.3,1.8,0.3c1,0,1.6-0.4,1.8-0.5l0.1-0.1c0.1-0.1,0.2-0.1,0.3,0c0.1,0,0.2,0.1,0.2,0.3L20.1,24.8L20.1,24.8z"/>
		<path class="st7" d="M18.4,2.2c-0.5,0.1-1,0.4-1.2,0.8c-0.7,1.1-0.3,2.8-0.2,2.9c0,0.1,0.1,0.2,0.3,0.2c0,0,0,0,0,0
			c0.1,0,0.2-0.1,0.3-0.2c0.2-0.5,0.8-0.6,1.4-0.8C19.1,5,19.3,5,19.5,4.9c0.5-0.2,0.8-1.1,0.7-1.8C20,2.3,19.3,2,18.4,2.2z
			 M19.2,4.4c-0.1,0.1-0.4,0.1-0.6,0.2c-0.4,0.1-0.9,0.3-1.3,0.6c-0.1-0.5-0.1-1.3,0.3-1.8c0.2-0.3,0.5-0.5,0.9-0.6
			c0.1,0,0.3,0,0.4,0c0.4,0,0.6,0.2,0.7,0.5C19.7,3.7,19.4,4.3,19.2,4.4z"/>
		<path class="st7" d="M19,5.1c-1,0-1.4,1.2-1.5,1.3c0,0.1,0,0.3,0.1,0.3c0.1,0.1,0.2,0.1,0.3,0c0,0,0.1,0,0.2,0
			c0.1,0,0.3,0.1,0.5,0.1c0.1,0,0.2,0.1,0.3,0.1c0.1,0,0.3,0,0.4,0c0.1,0,0.2,0,0.4,0c0.2-0.1,0.6-0.3,0.6-0.7c0-0.2,0-0.6-0.5-0.9
			C19.5,5.2,19.2,5.1,19,5.1z M19.5,6.3c-0.1,0-0.4,0-0.5,0c-0.1,0-0.1,0-0.2-0.1c-0.1-0.1-0.3-0.1-0.5-0.2c0.2-0.2,0.4-0.4,0.7-0.4
			c0.1,0,0.3,0,0.4,0.1c0.2,0.1,0.3,0.2,0.3,0.3C19.7,6.2,19.5,6.3,19.5,6.3z"/>
		<path class="st7" d="M12.1,4.2c-0.9,0.6-1,1.2-0.9,1.6c0.1,0.6,0.7,1.1,1.1,1.2c0.2,0.1,0.5,0.1,0.7,0.1l0,0c0.3,0,0.5,0,0.7-0.1
			c0.2,0,0.3-0.1,0.5-0.2c0.3-0.1,0.7-0.3,1.1-0.3c0.2,0,0.4,0.1,0.5,0.2c0.1,0,0.1,0.1,0.2,0.1c0.2,0,0.3-0.1,0.3-0.3
			c0-0.1,0-0.1-0.1-0.2c-0.2-0.3-1.5-2.4-3-2.4C12.8,3.9,12.5,4,12.1,4.2z M15.3,6c-0.5,0-0.9,0.2-1.3,0.3c-0.2,0.1-0.3,0.1-0.5,0.2
			c-0.1,0-0.3,0-0.5,0c-0.2,0-0.4,0-0.5,0c-0.2,0-0.6-0.4-0.7-0.8c-0.1-0.4,0.3-0.8,0.7-1c0.2-0.1,0.5-0.2,0.7-0.2
			C14,4.5,14.8,5.3,15.3,6z"/>
	</g>
</g>
<path d="M-12.4,36.5c0,16.2,0,32.3,0,48.5c0,3-0.8,3.8-3.9,3.8c-26.4,0-52.8,0-79.2,0c-2.8,0-3.6-0.8-3.6-3.7c0-32.4,0-64.8,0-97.2
	c0-0.9,0.3-2,0.7-2.8c1.8-3.5,3.8-7,5.7-10.5c1.1-1.9,2.3-3.7,3.3-5.7c0.5-0.9,0.7-1.9,0.7-2.9c0.1-4,0-8.1,0-12.1
	c0-2.2,1-3.2,3.2-3.2c19.7,0,39.4,0,59.1,0c2.3,0,3.3,1,3.3,3.3c0,4.2,0,8.3,0,12.5c0,0.7,0.2,1.4,0.5,2c1.6,3.1,3.3,6.2,5.1,9.3
	c1.3,2.4,2.8,4.7,4.1,7.1c0.5,0.9,0.8,2,0.8,3.1C-12.4,4.2-12.4,20.3-12.4,36.5z M-18.3-10.1c-25.2,0-50.2,0-75.2,0
	c0,31.1,0,62.2,0,93.3c25.1,0,50.1,0,75.2,0C-18.3,52-18.3,21-18.3-10.1z M-20.2-15.7c-0.1-0.3-0.2-0.5-0.3-0.7
	c-2.2-4-4.5-7.9-6.8-11.8c-0.2-0.4-0.9-0.6-1.4-0.6c-18.1,0-36.2,0-54.3,0c-0.8,0-1.3,0.3-1.7,1c-1.8,3.3-3.6,6.6-5.4,9.9
	c-0.4,0.7-0.8,1.5-1.2,2.3C-67.6-15.7-44-15.7-20.2-15.7z M-28.8-43.8c-18.2,0-36.2,0-54.2,0c0,3.2,0,6.2,0,9.3
	c18.1,0,36.1,0,54.2,0C-28.8-37.6-28.8-40.6-28.8-43.8z"/>
<path d="M-40,23.3c5.4,0.8,9.2,3.8,11.7,8.3c0.8,1.5,1.4,3.4,1.4,5.1c0.2,3.3-2.5,5.7-5.8,5.5c-2.1-0.1-4.1-0.7-5.8-1.9
	c-0.7-0.5-1.5-1-2.2-1.6c-0.8,2.9-1.5,5.7-2.3,8.5c-1,3.6-2.9,6.9-4.7,10.2c-0.6,1.2-1.6,1.7-3,1.7c-3.2,0-6.4-0.1-9.6,0
	c-1.9,0.1-3.2-0.8-4-2.4c-2.9-5.2-4.6-10.8-5.8-16.5c-0.1-0.5-0.2-0.9-0.3-1.1c-2.2,1-4.4,2.2-6.6,3c-2.1,0.8-4.2,0.1-6-1.2
	c-1.7-1.3-2-3.2-1.7-5.2c0.3-2,1.2-3.8,2.5-5.4c2.8-3.5,6-6.4,10.9-6.9c-0.6-0.8-1.1-1.6-1.7-2.2c-1.3-1.4-1.6-3.1-1.4-4.9
	c0.1-1.4,1.6-2.3,3.1-2.3c1.3,0,2.4,1,2.5,2.4c0.2,1.9,1.3,3.1,2.8,4c0.3,0.2,1,0.2,1.4-0.1c3.5-2.1,7.3-3.3,11.4-2.4
	c2,0.4,4,1.4,5.9,2.3c0.8,0.4,1.2,0.5,2.1,0.1c1.5-0.9,2.5-2,2.8-3.8c0.3-1.7,1.6-2.8,3.1-2.6c1.5,0.2,2.4,1.4,2.4,3.1
	c-0.1,2-0.8,3.7-2.1,5.2C-39.5,22.6-39.7,22.9-40,23.3z M-55.9,53.6c1,0,2.1,0.1,3.1,0c0.4,0,1-0.4,1.2-0.7c3-6.3,5.1-12.9,5.4-19.9
	c0.2-4.8-3.6-8.9-8.1-9.6c-5.5-0.8-10.7,3.4-11.3,7.8c-0.2,1.3-0.1,2.7,0,4.1c0.5,5.3,2.4,10.1,4.3,15c1.3,3.4,1.4,3.4,5,3.4
	C-56.1,53.6-56,53.6-55.9,53.6z M-32.5,36.6c-0.3-3.5-4.6-7.6-8-7.6C-40.8,31.7-35.7,37-32.5,36.6z M-79.1,36.6
	c3,0.2,8.1-4.8,7.9-7.7C-74.5,29.1-78.8,33.2-79.1,36.6z"/>
</svg>
